<svg viewBox="0 0 400 400" xmlns="http://www.w3.org/2000/svg">
  <!-- Wood grain pattern definition -->
  <defs>
    <!-- Oak wood grain pattern -->
    <pattern id="oakGrain" x="0" y="0" width="100" height="200" patternUnits="userSpaceOnUse">
      <rect width="100" height="200" fill="#8B6F47"/>
      <path d="M0,10 Q25,8 50,10 T100,10" stroke="#6B5637" stroke-width="0.5" fill="none" opacity="0.4"/>
      <path d="M0,25 Q30,23 60,25 T100,25" stroke="#6B5637" stroke-width="0.5" fill="none" opacity="0.4"/>
      <path d="M0,40 Q35,38 70,40 T100,40" stroke="#6B5637" stroke-width="0.5" fill="none" opacity="0.4"/>
      <path d="M0,55 Q20,53 40,55 T100,55" stroke="#6B5637" stroke-width="0.5" fill="none" opacity="0.4"/>
      <path d="M0,70 Q25,68 50,70 T100,70" stroke="#6B5637" stroke-width="0.5" fill="none" opacity="0.4"/>
      <path d="M0,85 Q30,83 60,85 T100,85" stroke="#6B5637" stroke-width="0.5" fill="none" opacity="0.4"/>
      <path d="M0,100 Q35,98 70,100 T100,100" stroke="#6B5637" stroke-width="0.5" fill="none" opacity="0.4"/>
      <path d="M0,115 Q20,113 40,115 T100,115" stroke="#6B5637" stroke-width="0.5" fill="none" opacity="0.4"/>
      <path d="M0,130 Q25,128 50,130 T100,130" stroke="#6B5637" stroke-width="0.5" fill="none" opacity="0.4"/>
      <path d="M0,145 Q30,143 60,145 T100,145" stroke="#6B5637" stroke-width="0.5" fill="none" opacity="0.4"/>
      <path d="M0,160 Q35,158 70,160 T100,160" stroke="#6B5637" stroke-width="0.5" fill="none" opacity="0.4"/>
      <path d="M0,175 Q20,173 40,175 T100,175" stroke="#6B5637" stroke-width="0.5" fill="none" opacity="0.4"/>
      <path d="M0,190 Q25,188 50,190 T100,190" stroke="#6B5637" stroke-width="0.5" fill="none" opacity="0.4"/>
    </pattern>

    <!-- Darker oak for shading -->
    <pattern id="oakGrainDark" x="0" y="0" width="100" height="200" patternUnits="userSpaceOnUse">
      <rect width="100" height="200" fill="#6B5637"/>
      <path d="M0,10 Q25,8 50,10 T100,10" stroke="#4B3627" stroke-width="0.5" fill="none" opacity="0.5"/>
      <path d="M0,30 Q30,28 60,30 T100,30" stroke="#4B3627" stroke-width="0.5" fill="none" opacity="0.5"/>
      <path d="M0,50 Q35,48 70,50 T100,50" stroke="#4B3627" stroke-width="0.5" fill="none" opacity="0.5"/>
      <path d="M0,70 Q20,68 40,70 T100,70" stroke="#4B3627" stroke-width="0.5" fill="none" opacity="0.5"/>
      <path d="M0,90 Q25,88 50,90 T100,90" stroke="#4B3627" stroke-width="0.5" fill="none" opacity="0.5"/>
      <path d="M0,110 Q30,108 60,110 T100,110" stroke="#4B3627" stroke-width="0.5" fill="none" opacity="0.5"/>
      <path d="M0,130 Q35,128 70,130 T100,130" stroke="#4B3627" stroke-width="0.5" fill="none" opacity="0.5"/>
      <path d="M0,150 Q20,148 40,150 T100,150" stroke="#4B3627" stroke-width="0.5" fill="none" opacity="0.5"/>
      <path d="M0,170 Q25,168 50,170 T100,170" stroke="#4B3627" stroke-width="0.5" fill="none" opacity="0.5"/>
      <path d="M0,190 Q30,188 60,190 T100,190" stroke="#4B3627" stroke-width="0.5" fill="none" opacity="0.5"/>
    </pattern>

    <!-- Iron band pattern -->
    <linearGradient id="ironGradient" x1="0%" y1="0%" x2="100%" y2="100%">
      <stop offset="0%" style="stop-color:#5A5A5A;stop-opacity:1" />
      <stop offset="50%" style="stop-color:#7A7A7A;stop-opacity:1" />
      <stop offset="100%" style="stop-color:#4A4A4A;stop-opacity:1" />
    </linearGradient>

    <!-- Linseed oil sheen -->
    <linearGradient id="oilSheen" x1="0%" y1="0%" x2="100%" y2="100%">
      <stop offset="0%" style="stop-color:#FFFFFF;stop-opacity:0.1" />
      <stop offset="50%" style="stop-color:#FFFFFF;stop-opacity:0.05" />
      <stop offset="100%" style="stop-color:#FFFFFF;stop-opacity:0" />
    </linearGradient>
  </defs>

  <!-- Entire mallet angled to the right -->
  <g transform="rotate(42, 200, 200)">

    <!-- Mallet Head (cylindrical) -->
    <g id="malletHead">
      <!-- Top face of cylinder -->
      <ellipse cx="200" cy="80" rx="70" ry="20" fill="url(#oakGrain)" stroke="#5B4637" stroke-width="1.5"/>

      <!-- Main cylindrical body -->
      <rect x="130" y="80" width="140" height="85" fill="url(#oakGrain)" stroke="#5B4637" stroke-width="1.5"/>

      <!-- Bottom face of cylinder (visible edge) -->
      <ellipse cx="200" cy="165" rx="70" ry="20" fill="url(#oakGrainDark)" stroke="#5B4637" stroke-width="1.5"/>

      <!-- Iron reinforcement bands -->
      <rect x="125" y="90" width="150" height="8" fill="url(#ironGradient)" stroke="#3A3A3A" stroke-width="0.5"/>
      <rect x="125" y="147" width="150" height="8" fill="url(#ironGradient)" stroke="#3A3A3A" stroke-width="0.5"/>

      <!-- Hammer marks and wear on striking surfaces -->
      <ellipse cx="180" cy="120" rx="8" ry="3" fill="#6B5637" opacity="0.3"/>
      <ellipse cx="210" cy="110" rx="6" ry="2" fill="#6B5637" opacity="0.3"/>
      <ellipse cx="195" cy="135" rx="7" ry="3" fill="#6B5637" opacity="0.3"/>
      <ellipse cx="220" cy="125" rx="5" ry="2" fill="#6B5637" opacity="0.3"/>

      <!-- Wood grain details on head -->
      <path d="M140,100 Q200,98 260,100" stroke="#6B5637" stroke-width="0.3" fill="none" opacity="0.5"/>
      <path d="M135,120 Q200,118 265,120" stroke="#6B5637" stroke-width="0.3" fill="none" opacity="0.5"/>
      <path d="M140,140 Q200,138 260,140" stroke="#6B5637" stroke-width="0.3" fill="none" opacity="0.5"/>
    </g>

    <!-- Handle (shorter, 6 inches) -->
    <g id="handle">
      <!-- Mortise joint area where handle meets head -->
      <rect x="190" y="165" width="20" height="25" fill="url(#oakGrainDark)" stroke="#5B4637" stroke-width="1"/>

      <!-- Main handle shaft with taper -->
      <path d="M192,190 L191,340 L209,340 L208,190 Z"
            fill="url(#oakGrain)" stroke="#5B4637" stroke-width="1.5"/>

      <!-- Handle taper detail (wider at top, narrower at bottom) -->
      <path d="M192,190 Q190,265 188,340 L191,340 Z"
            fill="url(#oakGrainDark)" opacity="0.5"/>
      <path d="M208,190 Q210,265 212,340 L209,340 Z"
            fill="url(#oakGrainDark)" opacity="0.5"/>

      <!-- Grip area with wear patina -->
      <ellipse cx="200" cy="290" rx="7" ry="18" fill="#6B5637" opacity="0.2"/>

      <!-- Wood grain lines on handle -->
      <line x1="194" y1="195" x2="193" y2="335" stroke="#6B5637" stroke-width="0.3" opacity="0.4"/>
      <line x1="197" y1="192" x2="196" y2="338" stroke="#6B5637" stroke-width="0.3" opacity="0.4"/>
      <line x1="200" y1="190" x2="200" y2="340" stroke="#6B5637" stroke-width="0.3" opacity="0.4"/>
      <line x1="203" y1="192" x2="204" y2="338" stroke="#6B5637" stroke-width="0.3" opacity="0.4"/>
      <line x1="206" y1="195" x2="207" y2="335" stroke="#6B5637" stroke-width="0.3" opacity="0.4"/>

      <!-- Wooden wedge in mortise joint -->
      <path d="M195,170 L198,185 L202,185 L205,170 Z"
            fill="#9B8667" stroke="#5B4637" stroke-width="0.5"/>
    </g>

    <!-- Surface details and aging -->
    <g id="aging" opacity="0.3">
      <!-- Scratches and dings on head -->
      <line x1="150" y1="95" x2="165" y2="98" stroke="#4B3627" stroke-width="0.5"/>
      <line x1="240" y1="130" x2="252" y2="128" stroke="#4B3627" stroke-width="0.5"/>
      <line x1="160" y1="145" x2="175" y2="143" stroke="#4B3627" stroke-width="0.5"/>

      <!-- Scratches on handle -->
      <line x1="195" y1="230" x2="198" y2="260" stroke="#4B3627" stroke-width="0.5"/>
      <line x1="202" y1="280" x2="204" y2="310" stroke="#4B3627" stroke-width="0.5"/>

      <!-- Age spots -->
      <circle cx="170" cy="140" r="2" fill="#5B4637" opacity="0.4"/>
      <circle cx="230" cy="105" r="1.5" fill="#5B4637" opacity="0.4"/>
      <circle cx="196" cy="250" r="1" fill="#5B4637" opacity="0.4"/>
      <circle cx="203" cy="300" r="1.2" fill="#5B4637" opacity="0.4"/>
    </g>

    <!-- Linseed oil sheen overlay -->
    <g id="sheen" opacity="0.15">
      <rect x="130" y="80" width="140" height="85" fill="url(#oilSheen)"/>
      <path d="M192,190 L191,340 L209,340 L208,190 Z" fill="url(#oilSheen)"/>
    </g>

  </g>
</svg>